<?xml version="1.0" encoding="utf-8"?>
<!-- Generator: Adobe Illustrator 17.0.0, SVG Export Plug-In . SVG Version: 6.00 Build 0)  -->
<!DOCTYPE svg PUBLIC "-//W3C//DTD SVG 1.1//EN" "http://www.w3.org/Graphics/SVG/1.1/DTD/svg11.dtd">
<svg version="1.1" id="Ebene_1" xmlns="http://www.w3.org/2000/svg" xmlns:xlink="http://www.w3.org/1999/xlink" x="0px" y="0px"
	 width="100px" height="100px" viewBox="0 0 100 100" enable-background="new 0 0 100 100" xml:space="preserve">
<path d="M89.206,85.602c-2.84,0.424-5.563,0.915-8.306,1.221c-5.113,0.571-10.229,1.154-15.359,1.515
	c-6.761,0.475-13.548,0.87-20.315,0.24c-9.029-0.841-17.515-3.503-24.953-8.787C13.476,74.963,9.637,68.214,8.621,59.917
	c-0.636-5.19,0.168-10.173,2.204-14.99c1.367-3.233,2.434-6.602,3.937-9.766c2.772-5.838,5.886-11.507,10.587-16.077
	C33.43,11.226,43.153,7.519,54.391,8.325c16.272,1.167,29.945,12.937,33.822,28.812c0.667,2.73,1.023,5.484,1.014,8.312
	c-0.044,12.914-0.019,25.828-0.019,38.742C89.206,84.614,89.206,85.036,89.206,85.602z M22.458,56.198
	c-0.009,9.69,7.915,17.745,17.477,17.762c9.885,0.018,17.962-7.823,17.979-17.454c0.018-10.025-7.838-18.002-17.726-18.002
	C30.405,38.505,22.468,46.427,22.458,56.198z M64.098,67.836c0.016,4.331,3.515,7.776,7.871,7.748
	c4.257-0.027,7.727-3.538,7.725-7.817c-0.002-4.333-3.492-7.797-7.84-7.779C67.492,60.006,64.082,63.456,64.098,67.836z"/>
<path fill="#FFFFFF" d="M22.458,56.198c0.01-9.771,7.947-17.693,17.729-17.693c9.889-0.001,17.744,7.977,17.726,18.002
	c-0.017,9.631-8.094,17.472-17.979,17.454C30.373,73.943,22.448,65.889,22.458,56.198z"/>
<path fill="#FFFFFF" d="M64.098,67.836c-0.016-4.38,3.395-7.831,7.757-7.848c4.347-0.018,7.838,3.446,7.84,7.779
	c0.002,4.279-3.468,7.79-7.725,7.817C67.612,75.612,64.113,72.168,64.098,67.836z"/>
</svg>
