<?xml version="1.0" encoding="utf-8"?>
<!-- Generator: Adobe Illustrator 17.0.0, SVG Export Plug-In . SVG Version: 6.00 Build 0)  -->
<!DOCTYPE svg PUBLIC "-//W3C//DTD SVG 1.1//EN" "http://www.w3.org/Graphics/SVG/1.1/DTD/svg11.dtd">
<svg version="1.1" id="Ebene_1" xmlns="http://www.w3.org/2000/svg" xmlns:xlink="http://www.w3.org/1999/xlink" x="0px" y="0px"
	 width="850px" height="416.107px" viewBox="0 0 850 416.107" enable-background="new 0 0 850 416.107" xml:space="preserve">
<g>
	<g>
		<path fill="#010202" d="M142.488,250.304c-10.911-7.827-15.304-10.004-15.304-16.012c0-4.897,3.838-7.626,12.022-7.626
			c9.244,0,16.518,4.697,20.153,7.425l16.012-23.435c-5.1-3.843-14.345-10.71-35.813-10.71c-26.012,0-45.46,12.175-45.46,36.365
			c0,19.044,11.114,28.339,21.823,36.32c14.192,10.556,18.182,12.022,18.182,17.275c0,5.101-4.546,7.828-15.255,7.828
			c-12.223,0-20.406-6.008-23.285-8.331l-17.83,23.234c5.453,4.748,18.182,12.73,40.207,12.73c31.619,0,49.955-13.234,49.955-38.544
			C167.894,266.671,153.549,258.133,142.488,250.304z"/>
		<path fill="#010202" d="M228.106,298.493c-9.802,0-15.254-6.014-15.254-17.123c0-17.077,10.556-30.362,27.073-30.362
			c8.184,0,13.639,2.023,18.386,4.75l13.79-23.287c-4.9-3.838-14.701-7.626-30.358-7.626c-39.804,0-62.887,27.984-62.887,58.187
			c0,22.729,13.082,41.776,45.057,41.776c19.849,0,32.176-6.719,37.276-10.507l-11.819-23.086
			C244.673,294.452,237.549,298.493,228.106,298.493z"/>
		<path fill="#010202" d="M331.656,321.78l-0.254,1.41h31.973l3.384-18.231L331.656,321.78z M349.383,226.666l-6.363,34.146h-30.51
			l6.364-34.146H286.85l-17.831,96.525h7.88c8.739-3.733,17.476-7.425,26.215-11.163l4.648-25.005h30.56l-2.073,10.912
			c11.568-4.948,23.135-9.85,34.6-14.701l10.557-56.569L349.383,226.666L349.383,226.666z"/>
		<path fill="#010202" d="M409.796,284.399l-7.274,38.791h31.976l10.453-55.562L409.796,284.399z M393.228,226.666l-4.747,26.012
			h27.278l-2.324,12.426c21.47-9.19,42.532-18.183,63.039-26.923l2.016-11.514L393.228,226.666L393.228,226.666z"/>
		<path fill="#010202" d="M542.891,226.666h-12.223l-25.557,12.223l-48.592,84.301h32.733l6.162-12.524h33.084l1.815,12.524h33.641
			L542.891,226.666z M507.079,287.735l5.958-11.972c4.401-8.741,7.833-18.183,8.035-18.538h0.351c0,0.153,0.913,9.797,2.176,18.538
			l1.613,11.972H507.079z"/>
		<path fill="#010202" d="M590.877,226.666l-18.182,96.525h32.378l17.985-96.525L590.877,226.666L590.877,226.666z"/>
		<path fill="#010202" d="M661.445,297.935l13.285-71.27h-32.029l-17.976,96.525h68.191l4.544-25.255L661.445,297.935
			L661.445,297.935z"/>
	</g>
	<path fill="#010202" d="M697.865,70.282c-41.066,0-74.352,33.286-74.352,74.352c0,10.053,1.969,19.648,5.652,28.438l127.542-54.453
		l-125.114,59.805c0.05,0.152,0.148,0.256,0.203,0.404c0.961,1.869,2.017,3.689,3.132,5.454
		c13.181,20.862,36.419,34.753,62.938,34.753c41.066,0,74.401-33.336,74.401-74.401S738.93,70.282,697.865,70.282z"/>
</g>
<g display="none">
	<g display="inline">
		<g>
			<polygon fill="#010202" points="425,217.832 376.843,158.279 438.162,96.961 416.475,75.274 355.142,75.274 333.293,97.123 
				369.693,142.137 366.124,145.024 327.126,96.798 353.24,70.684 418.377,70.684 444.653,96.961 383.009,158.605 425,210.532 
				516.707,97.123 494.858,75.274 441.408,75.274 441.408,70.684 496.76,70.684 522.874,96.798 			"/>
		</g>
	</g>
	<rect x="176.342" y="260.296" display="inline" fill="none" width="497.315" height="122.819"/>
	
		<text transform="matrix(1 0 0 1 188.3526 323.9308)" display="inline" fill="#010202" font-family="'NHaasGroteskDSPro-35XLt'" font-size="89">Twentyseven</text>
</g>
</svg>
